<svg xmlns="http://www.w3.org/2000/svg" viewBox="0 0 48 48" aria-hidden="true">
  <path fill="#EA4335" d="M24 9.5c3.2 0 6.1 1.1 8.4 3.2l6.3-6.3C34.8 2.8 29.8.5 24 .5 14.6.5 6.6 5.9 2.7 13.7l7.5 5.8C12 13.3 17.5 9.5 24 9.5z"/>
  <path fill="#34A853" d="M24 47.5c5.7 0 10.5-1.9 14-5.3l-6.8-5.3c-2 1.3-4.5 2.1-7.2 2.1-6.4 0-11.9-4.3-13.8-10.1l-7.7 5.9C6.3 42.2 14.4 47.5 24 47.5z"/>
  <path fill="#FBBC05" d="M10.2 28.9C9.7 27.4 9.5 25.7 9.5 24s.3-3.4.8-4.9l-7.7-5.9C1 16.6 0 20.2 0 24s1 7.4 2.6 10.8l7.6-5.9z"/>
  <path fill="#4285F4" d="M47.5 24.5c0-1.6-.1-2.8-.4-4.1H24v8h13.2c-.3 2-1.6 5.1-4.5 7l6.8 5.3c4-3.7 6.4-9.1 6.4-16.2z"/>
</svg>
